<svg xmlns="http://www.w3.org/2000/svg" xmlns:xlink="http://www.w3.org/1999/xlink" width="266.667" height="277.747" viewBox="0 0 266.667 277.747"><defs><style>.a{opacity:0.7;}.b{fill:url(#a);}.ac,.c{opacity:0.1;}.ad,.d{opacity:0.17;}.ae,.e{opacity:0.05;}.f{opacity:0.5;}.g{fill:url(#h);}.h{fill:url(#j);}.i{fill:url(#u);}.j{fill:url(#z);}.aj,.am,.k{opacity:0.6;}.l{fill:url(#ar);}.ak,.m{opacity:0.07;}.n{fill:url(#aw);}.o{fill:url(#ax);}.p{fill:url(#ay);}.q{fill:url(#az);}.r{fill:url(#ba);}.s{fill:url(#bf);}.t{fill:url(#bh);}.u{fill:url(#bi);}.v{fill:url(#bj);}.w{fill:url(#bl);}.x{fill:url(#bm);}.y{fill:url(#bo);}.z{fill:url(#br);}.aa{fill:url(#bs);}.ab{fill:#535461;}.af{fill:#f5f5f5;}.ag,.am{fill:#5abd8c;}.ah{fill:#e0e0e0;}.ai{fill:#fff;}.aj{fill:#3ad29f;}.al{fill:url(#ch);}.an{fill:#bdbdbd;}.ao{fill:url(#cj);}.ap{fill:#f2f2f2;}.aq{fill:#69f0ae;}</style><linearGradient id="a" y1="0.5" x2="1" y2="0.5" gradientUnits="objectBoundingBox"><stop offset="0" stop-color="gray" stop-opacity="0.251"/><stop offset="0.54" stop-color="gray" stop-opacity="0.122"/><stop offset="1" stop-color="gray" stop-opacity="0.102"/></linearGradient><linearGradient id="h" x1="0.5" y1="1" x2="0.5" y2="0" xlink:href="#a"/><linearGradient id="j" x1="0" y1="0.5" y2="0.5" xlink:href="#a"/><linearGradient id="u" x1="0.5" y1="1" x2="0.5" y2="0" xlink:href="#a"/><linearGradient id="z" x1="0" y1="0.5" y2="0.5" xlink:href="#a"/><linearGradient id="ar" x1="0" y1="0.5" y2="0.5" xlink:href="#a"/><linearGradient id="aw" x1="0.5" y1="1" x2="0.5" y2="0" xlink:href="#a"/><linearGradient id="ax" x1="0" y1="0.5" y2="0.5" xlink:href="#a"/><linearGradient id="ay" x1="0.5" y1="0.999" x2="0.5" y2="-0.002" xlink:href="#a"/><linearGradient id="az" x1="0" y1="0.5" y2="0.5" xlink:href="#a"/><linearGradient id="ba" x1="0.001" y1="0.501" y2="0.501" xlink:href="#a"/><linearGradient id="bf" x1="0" y1="0.5" y2="0.5" xlink:href="#a"/><linearGradient id="bh" x1="0" y1="0.5" y2="0.5" xlink:href="#a"/><linearGradient id="bi" x1="0" y1="0.498" y2="0.498" xlink:href="#a"/><linearGradient id="bj" x1="0" y1="0.498" y2="0.498" xlink:href="#a"/><linearGradient id="bl" x1="0" y1="0.502" y2="0.502" xlink:href="#a"/><linearGradient id="bm" x1="0" y1="0.502" y2="0.502" xlink:href="#a"/><linearGradient id="bo" x1="0" y1="0.5" y2="0.5" xlink:href="#a"/><linearGradient id="br" x1="0" y1="0.499" y2="0.499" xlink:href="#a"/><linearGradient id="bs" x1="0" y1="0.501" y2="0.501" xlink:href="#a"/><linearGradient id="ch" x1="0.5" y1="1.002" x2="0.5" y2="0.003" xlink:href="#a"/><linearGradient id="cj" x1="0.5" y1="1" x2="0.5" y2="0" xlink:href="#a"/></defs><g class="a" transform="translate(0 46.754)"><path class="b" d="M454.337,329.314,366.37,308.13v165.8l87.967-23.026Z" transform="translate(-233.266 -242.938)"/><g class="c" transform="translate(133.104 65.192)"><path class="b" d="M454.337,329.314,366.37,308.13v165.8l87.967-23.026Z" transform="translate(-366.37 -308.13)"/></g><path class="b" d="M124.23,329.314,212.2,308.13v165.8L124.23,451.363Z" transform="translate(-79.097 -242.938)"/><g class="d" transform="translate(45.134 65.192)"><path class="b" d="M124.23,329.314,212.2,308.13v165.8L124.23,451.363Z" transform="translate(-124.23 -308.13)"/></g><path class="b" d="M366.37,241.946l45.595-37.766,87.967,22.569L454.337,263.13Z" transform="translate(-233.266 -176.754)"/><path class="b" d="M0,227.206,45.134,263.13,133.1,241.946,88.429,204.18Z" transform="translate(0 -176.754)"/><g class="e" transform="translate(0 27.426)"><path class="b" d="M0,227.206,45.134,263.13,133.1,241.946,88.429,204.18Z" transform="translate(0 -204.18)"/></g><g class="f" transform="translate(67.858 46.027)"><rect class="g" width="65.293" height="60.243" rx="4.5"/></g><rect class="b" width="63.789" height="58.783" rx="4.5" transform="translate(68.654 46.492)"/><rect class="h" width="10.757" height="9.682" rx="4.5" transform="translate(73.569 56.174)"/><rect class="b" width="42.765" height="1.075" rx="0.538" transform="translate(87.553 56.174)"/><rect class="b" width="42.765" height="1.075" rx="0.538" transform="translate(87.553 59.401)"/><rect class="b" width="57.824" height="1.075" rx="0.538" transform="translate(72.494 71.117)"/><rect class="b" width="57.824" height="1.075" rx="0.538" transform="translate(72.494 74.343)"/><rect class="b" width="57.824" height="1.075" rx="0.538" transform="translate(72.494 78.645)"/><rect class="b" width="33.348" height="1.075" rx="0.538" transform="translate(72.494 81.875)"/><rect class="b" width="57.824" height="1.075" rx="0.538" transform="translate(72.494 86.165)"/><rect class="b" width="57.824" height="1.075" rx="0.538" transform="translate(72.494 89.391)"/><rect class="b" width="57.824" height="1.075" rx="0.538" transform="translate(72.494 93.697)"/><rect class="b" width="33.348" height="1.075" rx="0.538" transform="translate(72.494 96.923)"/><g class="f" transform="translate(77.711 59.945)"><rect class="i" width="65.293" height="60.243" rx="4.5" transform="translate(0 0)"/></g><rect class="b" width="63.789" height="58.783" rx="4.5" transform="translate(78.507 60.414)"/><rect class="h" width="10.757" height="9.682" rx="4.5" transform="translate(83.422 70.096)"/><rect class="b" width="42.765" height="1.075" rx="0.538" transform="translate(97.41 70.096)"/><rect class="b" width="42.765" height="1.075" rx="0.538" transform="translate(97.41 73.322)"/><rect class="j" width="57.824" height="1.075" rx="0.538" transform="translate(82.347 85.035)"/><rect class="j" width="57.824" height="1.075" rx="0.538" transform="translate(82.347 88.265)"/><rect class="j" width="57.824" height="1.075" rx="0.538" transform="translate(82.347 92.567)"/><rect class="b" width="33.348" height="1.075" rx="0.538" transform="translate(82.347 95.793)"/><rect class="j" width="57.824" height="1.075" rx="0.538" transform="translate(82.347 100.087)"/><rect class="j" width="57.824" height="1.075" rx="0.538" transform="translate(82.347 103.313)"/><rect class="j" width="57.824" height="1.075" rx="0.538" transform="translate(82.347 107.619)"/><rect class="b" width="33.348" height="1.075" rx="0.538" transform="translate(82.347 110.845)"/><g class="f" transform="translate(115.68 67.742)"><rect class="i" width="56.574" height="66.47"/></g><rect class="b" width="53.631" height="63.931" transform="translate(117.421 68.814)"/><g class="f" transform="translate(137.224 77.373)"><path class="i" d="M620.643,411.016V409.41h-5.831v1.606h-4.1V418.9h14.024v-7.887Zm-5.1-1.028h4.36v1.021h-4.36Z" transform="translate(-610.71 -409.41)"/></g><rect class="b" width="12.839" height="7.223" transform="translate(137.817 79.244)"/><path class="b" d="M389.65,342.76v1.875h.668V343.3h4.011v1.337H395V342.76Z" transform="translate(-248.088 -264.987)"/><rect class="b" width="37.715" height="1.606" transform="translate(125.446 96.861)"/><rect class="b" width="37.715" height="1.606" transform="translate(125.446 107.426)"/><rect class="b" width="37.715" height="1.606" transform="translate(125.446 110.234)"/><rect class="b" width="15.916" height="1.606" transform="translate(125.446 104.618)"/><g class="k" transform="translate(151.259 104.618)"><rect class="b" width="11.902" height="1.606"/></g><rect class="l" width="11.902" height="1.606" transform="translate(138.685 116.788)"/><path class="b" d="M124.23,366.44V488.489L212.2,511.058V389.931Z" transform="translate(-79.097 -280.064)"/><path class="b" d="M454.337,488.031,366.37,511.058V389.931l87.967-23.491Z" transform="translate(-233.266 -280.064)"/><g class="m" transform="translate(133.104 86.376)"><path class="b" d="M454.337,488.031,366.37,511.058V389.931l87.967-23.491Z" transform="translate(-366.37 -366.44)"/></g><g class="m" transform="translate(186.067 157.766)"><path class="b" d="M512.15,572.611V612.68l35-9.671V562.94Z" transform="translate(-512.15 -562.94)"/></g><rect class="n" width="25.944" height="24.926" transform="translate(175.034 76.196)"/><rect class="o" width="25.13" height="23.807" transform="translate(175.44 76.807)"/><g class="f" transform="translate(182.67 79.767)"><path class="p" d="M743.357,417.213V416h-4.443v1.221H735.8v6h10.67v-6.009Zm-3.887-.777H742.8v.777h-3.335Z" transform="translate(-735.8 -416)"/></g><g class="k" transform="translate(183.121 81.184)"><rect class="q" width="9.766" height="5.493"/></g><g class="k" transform="translate(185.969 80.062)"><path class="r" d="M511.88,349.06v1.428h.512v-1.017h3.052v1.017h.509V349.06Z" transform="translate(-511.88 -349.06)"/></g><g class="k" transform="translate(183.68 90.95)"><rect class="q" width="9.054" height="1.221"/></g><rect class="b" width="15.466" height="1.221" transform="translate(180.272 93.188)"/><g class="f" transform="translate(113.53)"><rect class="n" width="33.613" height="27.611"/></g><rect class="b" width="32.767" height="26.63" transform="translate(113.922 0.523)"/><rect class="s" width="32.767" height="5.94" transform="translate(113.922 0.523)"/><g class="c" transform="translate(113.922 0.523)"><rect class="s" width="32.767" height="5.94"/></g><rect class="t" width="27.546" height="3.459" transform="translate(116.534 8.618)"/><rect class="u" width="20.105" height="1.173" transform="translate(116.534 14.688)"/><rect class="v" width="13.054" height="1.173" transform="translate(116.534 16.712)"/><rect class="v" width="17.232" height="1.173" transform="translate(116.534 18.736)"/><rect class="w" width="20.105" height="1.173" transform="translate(116.534 20.756)"/><rect class="x" width="6.721" height="1.173" transform="translate(116.534 22.779)"/><g class="f" transform="translate(162.95 20.734)"><rect class="i" width="41.664" height="34.22"/></g><rect class="y" width="40.614" height="33.006" transform="translate(163.437 21.381)"/><rect class="t" width="40.614" height="7.361" transform="translate(163.437 21.381)"/><rect class="b" width="34.14" height="4.287" transform="translate(166.67 31.411)"/><rect class="z" width="24.919" height="1.457" transform="translate(166.67 38.936)"/><rect class="aa" width="16.182" height="1.457" transform="translate(166.67 41.442)"/><rect class="z" width="21.359" height="1.457" transform="translate(166.67 43.953)"/><rect class="z" width="24.919" height="1.457" transform="translate(166.67 46.46)"/><rect class="aa" width="8.334" height="1.457" transform="translate(166.67 48.966)"/><rect class="b" width="9.708" height="1.293" transform="translate(168.45 32.868)"/><g class="c" transform="translate(43.985 87.989)"><path class="b" d="M121.07,432.595l49.279,12.436,39.608-32.24v-19.8L121.989,370.88Z" transform="translate(-121.07 -370.88)"/></g><g class="c" transform="translate(132.872 87.989)"><path class="b" d="M454.62,432.595l-49.282,12.436-39.608-32.24v-19.8L453.7,370.88Z" transform="translate(-365.73 -370.88)"/></g><path class="b" d="M45.134,366.44,0,403.748l87.967,22.107L133.1,389.931Z" transform="translate(0 -280.064)"/><path class="b" d="M454.337,366.44l45.595,37.308-87.506,22.107L366.37,389.931Z" transform="translate(-233.266 -280.064)"/><g class="m" transform="translate(133.104 86.376)"><path class="b" d="M454.337,366.44l45.595,37.308-87.506,22.107L366.37,389.931Z" transform="translate(-366.37 -366.44)"/></g></g><path class="ab" d="M456.1,326.546,368.88,305.54V469.925l87.215-22.83Z" transform="translate(-234.864 -194.535)"/><path class="ac" d="M456.1,326.546,368.88,305.54V469.925l87.215-22.83Z" transform="translate(-234.864 -194.535)"/><path class="ab" d="M128.83,326.546l87.212-21.006V469.925L128.83,447.549Z" transform="translate(-82.025 -194.535)"/><path class="ad" d="M128.83,324.546l87.212-21.006V468.652L128.83,446.276Z" transform="translate(-82.025 -193.262)"/><path class="ab" d="M366.88,240.649l45.933-38.169,87.215,22.376-45.933,36.8Z" transform="translate(-233.59 -128.918)"/><path class="ab" d="M7.66,227.31l44.748,35.619,87.212-21.006L95.329,204.48Z" transform="translate(-4.877 -130.191)"/><path class="ae" d="M5.66,225.31,51.5,261.655l87.212-21.006L93.329,202.48Z" transform="translate(-3.604 -128.918)"/><g class="f" transform="translate(69.33 92.004)"><rect class="i" width="64.734" height="59.728" rx="4.5"/></g><rect class="af" width="63.241" height="58.278" rx="4.5" transform="translate(70.122 92.469)"/><rect class="ag" width="10.667" height="9.599" rx="4.5" transform="translate(74.994 102.067)"/><rect class="ah" width="42.398" height="1.068" rx="0.534" transform="translate(88.861 102.067)"/><rect class="ah" width="42.398" height="1.068" rx="0.534" transform="translate(88.861 105.264)"/><rect class="ah" width="57.33" height="1.068" rx="0.534" transform="translate(73.929 116.879)"/><rect class="ah" width="57.33" height="1.068" rx="0.534" transform="translate(73.929 120.08)"/><rect class="ah" width="57.33" height="1.068" rx="0.534" transform="translate(73.929 124.345)"/><rect class="ah" width="33.064" height="1.068" rx="0.534" transform="translate(73.929 127.546)"/><rect class="ah" width="57.33" height="1.068" rx="0.534" transform="translate(73.929 131.8)"/><rect class="ah" width="57.33" height="1.068" rx="0.534" transform="translate(73.929 135.001)"/><rect class="ah" width="57.33" height="1.068" rx="0.534" transform="translate(73.929 139.266)"/><rect class="ah" width="33.064" height="1.068" rx="0.534" transform="translate(73.929 142.467)"/><g class="f" transform="translate(79.099 105.806)"><rect class="n" width="64.734" height="59.728" rx="4.5"/></g><rect class="ai" width="63.241" height="58.278" rx="4.5" transform="translate(79.891 106.271)"/><rect class="ag" width="10.667" height="9.599" rx="4.5" transform="translate(84.763 115.869)"/><rect class="ah" width="42.398" height="1.068" rx="0.534" transform="translate(98.63 115.869)"/><rect class="ah" width="42.398" height="1.068" rx="0.534" transform="translate(98.63 119.066)"/><rect class="ah" width="57.33" height="1.068" rx="0.534" transform="translate(83.698 130.681)"/><rect class="ah" width="57.33" height="1.068" rx="0.534" transform="translate(83.698 133.882)"/><rect class="ah" width="57.33" height="1.068" rx="0.534" transform="translate(83.698 138.147)"/><rect class="ah" width="33.064" height="1.068" rx="0.534" transform="translate(83.698 141.348)"/><rect class="ah" width="57.33" height="1.068" rx="0.534" transform="translate(83.698 145.602)"/><rect class="ah" width="57.33" height="1.068" rx="0.534" transform="translate(83.698 148.803)"/><rect class="ah" width="57.33" height="1.068" rx="0.534" transform="translate(83.698 153.068)"/><rect class="ah" width="33.064" height="1.068" rx="0.534" transform="translate(83.698 156.269)"/><g class="f" transform="translate(116.745 113.537)"><rect class="i" width="56.091" height="65.9"/></g><rect class="ai" width="53.173" height="63.382" transform="translate(118.47 114.598)"/><g class="f" transform="translate(138.104 123.081)"><path class="n" d="M622.979,408.125V406.53h-5.795v1.595H613.13v7.822h13.9v-7.822Zm-5.086-1.014h4.36v1.014h-4.36Z" transform="translate(-613.13 -406.53)"/></g><rect class="ag" width="12.73" height="7.161" transform="translate(138.692 124.941)"/><path class="ag" d="M391.97,339.88v1.856h.661V340.41h3.978v1.326h.665V339.88Z" transform="translate(-249.565 -216.4)"/><rect class="ah" width="37.391" height="1.591" transform="translate(126.427 142.405)"/><rect class="ah" width="37.391" height="1.591" transform="translate(126.427 152.879)"/><rect class="ah" width="37.391" height="1.591" transform="translate(126.427 155.666)"/><rect class="ah" width="15.778" height="1.591" transform="translate(126.427 150.096)"/><rect class="aj" width="11.8" height="1.591" transform="translate(152.018 150.096)"/><rect class="ag" width="11.8" height="1.591" transform="translate(139.553 162.162)"/><path class="ab" d="M128.83,363.36v121l87.212,22.376,1.177-120.091Z" transform="translate(-82.025 -231.349)"/><path class="ab" d="M456.1,483.909l-87.215,22.83V386.648L456.1,363.36Z" transform="translate(-234.864 -231.349)"/><path class="ak" d="M456.1,483.909l-87.215,22.83V386.648L456.1,363.36Z" transform="translate(-234.864 -231.349)"/><path class="ak" d="M513.42,567.761v39.724l34.7-9.588V558.17Z" transform="translate(-326.891 -355.383)"/><rect class="i" width="25.722" height="24.712" transform="translate(175.589 121.918)"/><rect class="af" width="24.916" height="23.604" transform="translate(175.993 122.521)"/><g class="f" transform="translate(183.164 125.431)"><path class="al" d="M744.651,414.228V413h-4.407v1.213H737.16v5.951h10.576v-5.936Zm-3.855-.77H744.1v.77H740.8Z" transform="translate(-737.16 -413)"/></g><rect class="am" width="9.682" height="5.446" transform="translate(183.608 126.859)"/><path class="am" d="M513.16,346.13v1.413h.505v-1.01h3.026v1.01h.5V346.13Z" transform="translate(-326.726 -220.379)"/><g class="k" transform="translate(184.163 136.545)"><rect class="ag" width="8.977" height="1.21"/></g><rect class="an" width="15.332" height="1.21" transform="translate(180.785 138.765)"/><rect class="i" width="25.722" height="24.712" transform="translate(150.932)"/><rect class="af" width="24.916" height="23.604" transform="translate(151.335 0.607)"/><g class="f" transform="translate(158.507 3.531)"><path class="ao" d="M676.781,78.68V77.47h-4.407v1.21H669.29v5.951h10.576V78.68Zm-3.855-.77h3.306v.77h-3.306Z" transform="translate(-669.29 -77.47)"/></g><rect class="am" width="9.682" height="5.446" transform="translate(158.95 4.941)"/><path class="am" d="M445.29,10.55v1.413h.5v-1.01h3.026v1.01h.5V10.55Z" transform="translate(-283.513 -6.717)"/><g class="k" transform="translate(159.506 14.627)"><rect class="ag" width="8.977" height="1.21"/></g><rect class="an" width="15.332" height="1.21" transform="translate(156.127 16.847)"/><g class="f" transform="translate(114.612 46.372)"><rect class="n" width="33.326" height="27.375"/></g><rect class="ap" width="32.487" height="26.401" transform="translate(115.001 46.892)"/><rect class="ag" width="32.487" height="5.889" transform="translate(115.001 46.892)"/><rect class="ac" width="32.487" height="5.889" transform="translate(115.001 46.892)"/><rect class="ah" width="27.31" height="3.43" transform="translate(117.591 54.917)"/><rect class="ah" width="19.931" height="1.166" transform="translate(117.591 60.934)"/><rect class="ah" width="12.941" height="1.166" transform="translate(117.591 62.939)"/><rect class="ah" width="17.083" height="1.166" transform="translate(117.591 64.945)"/><rect class="ah" width="19.931" height="1.166" transform="translate(117.591 66.954)"/><rect class="ah" width="6.667" height="1.166" transform="translate(117.591 68.959)"/><g class="f" transform="translate(163.608 66.928)"><rect class="i" width="41.308" height="33.929"/></g><rect class="ai" width="40.265" height="32.727" transform="translate(164.091 67.568)"/><rect class="ag" width="40.265" height="7.299" transform="translate(164.091 67.568)"/><rect class="af" width="33.849" height="4.251" transform="translate(167.299 77.515)"/><rect class="ah" width="24.705" height="1.442" transform="translate(167.299 84.974)"/><rect class="ah" width="16.044" height="1.442" transform="translate(167.299 87.462)"/><rect class="ah" width="21.173" height="1.442" transform="translate(167.299 89.947)"/><rect class="ah" width="24.705" height="1.442" transform="translate(167.299 92.436)"/><rect class="ah" width="8.262" height="1.442" transform="translate(167.299 94.921)"/><rect class="aq" width="9.624" height="1.282" transform="translate(169.064 78.957)"/><path class="ac" d="M125.69,428.948l48.857,12.327,39.27-31.964V389.678L126.6,367.76Z" transform="translate(-80.026 -234.151)"/><path class="ac" d="M456.387,428.948,407.53,441.275l-39.27-31.964V389.678l87.215-21.918Z" transform="translate(-234.469 -234.151)"/><path class="ab" d="M50.408,363.36,5.66,400.345l87.212,21.918,44.748-35.615Z" transform="translate(-3.604 -231.349)"/><path class="ab" d="M456.1,363.36,501.3,400.345l-86.757,21.918L368.88,386.648Z" transform="translate(-234.864 -231.349)"/><path class="ak" d="M456.1,363.36,501.3,400.345l-86.757,21.918L368.88,386.648Z" transform="translate(-234.864 -231.349)"/></svg>